<svg width="82" height="19" viewBox="0 0 82 19" fill="none" xmlns="http://www.w3.org/2000/svg">
<path d="M7.43725 18.74C6.18925 18.74 5.06125 18.5 4.05325 18.02C3.06125 17.524 2.27725 16.828 1.70125 15.932C1.14125 15.02 0.86125 13.972 0.86125 12.788C0.86125 11.124 1.38925 9.764 2.44525 8.708C3.50125 7.652 4.89325 7.028 6.62125 6.836C7.40525 6.756 7.97325 6.564 8.32525 6.26C8.67725 5.94 8.85325 5.492 8.85325 4.916C8.85325 4.436 8.70925 4.052 8.42125 3.764C8.14925 3.476 7.75725 3.332 7.24525 3.332C6.73325 3.332 6.33325 3.484 6.04525 3.788C5.75725 4.076 5.61325 4.476 5.61325 4.988L1.94125 4.868C1.97325 4.02 2.21325 3.252 2.66125 2.564C3.10925 1.86 3.73325 1.308 4.53325 0.907999C5.33325 0.507999 6.24525 0.308 7.26925 0.308C8.29325 0.308 9.19725 0.507999 9.98125 0.907999C10.7813 1.292 11.3893 1.796 11.8053 2.42C12.2373 3.044 12.4532 3.708 12.4532 4.412C12.4532 5.868 11.8613 6.9 10.6773 7.508C11.7173 7.972 12.5333 8.668 13.1253 9.596C13.7333 10.508 14.0373 11.572 14.0373 12.788C14.0373 13.972 13.7493 15.02 13.1733 15.932C12.5973 16.828 11.8053 17.524 10.7973 18.02C9.80525 18.5 8.68525 18.74 7.43725 18.74ZM4.46125 12.788C4.46125 13.684 4.73325 14.396 5.27725 14.924C5.83725 15.436 6.55725 15.692 7.43725 15.692C8.31725 15.692 9.03725 15.436 9.59725 14.924C10.1573 14.396 10.4373 13.684 10.4373 12.788C10.4373 11.908 10.1573 11.204 9.59725 10.676C9.03725 10.148 8.31725 9.884 7.43725 9.884C6.55725 9.884 5.83725 10.148 5.27725 10.676C4.73325 11.204 4.46125 11.908 4.46125 12.788ZM17.7053 18.5C17.2733 17.124 16.9373 15.748 16.6973 14.372C16.4733 12.98 16.3613 11.436 16.3613 9.74V6.98C16.3613 5.588 16.6333 4.388 17.1773 3.38C17.7213 2.372 18.4653 1.604 19.4093 1.076C20.3693 0.547999 21.4573 0.283998 22.6733 0.283998C23.8733 0.283998 24.9453 0.547999 25.8893 1.076C26.8493 1.604 27.6013 2.372 28.1453 3.38C28.6893 4.372 28.9613 5.556 28.9613 6.932V9.74C28.9613 11.436 28.8413 12.988 28.6013 14.396C28.3773 15.788 28.0493 17.156 27.6173 18.5H24.1613C24.9933 15.7 25.4093 12.828 25.4093 9.884V7.124C25.4093 5.94 25.1613 5.028 24.6653 4.388C24.1853 3.748 23.5213 3.428 22.6733 3.428C21.8253 3.428 21.1533 3.748 20.6573 4.388C20.1773 5.028 19.9373 5.948 19.9373 7.148V9.884C19.9373 12.828 20.3533 15.7 21.1853 18.5H17.7053ZM45.2226 6.908C46.2306 6.908 47.1426 7.14 47.9586 7.604C48.7906 8.052 49.4466 8.748 49.9266 9.692C50.4226 10.636 50.6706 11.82 50.6706 13.244C50.6706 14.188 50.5586 15.084 50.3346 15.932C50.1266 16.78 49.8386 17.636 49.4706 18.5H45.9426C46.3266 17.54 46.6066 16.668 46.7826 15.884C46.9746 15.1 47.0706 14.26 47.0706 13.364C47.0706 12.228 46.8706 11.388 46.4706 10.844C46.0866 10.3 45.5586 10.028 44.8866 10.028C44.2466 10.028 43.7506 10.268 43.3986 10.748C43.0626 11.212 42.8946 11.868 42.8946 12.716V15.812H39.3186V12.716C39.3186 11.868 39.1506 11.212 38.8146 10.748C38.4786 10.268 37.9986 10.028 37.3746 10.028C36.6866 10.028 36.1426 10.3 35.7426 10.844C35.3586 11.372 35.1666 12.212 35.1666 13.364C35.1666 14.276 35.2546 15.124 35.4306 15.908C35.6066 16.676 35.8946 17.54 36.2946 18.5H32.7666C32.3666 17.38 32.0626 16.308 31.8546 15.284C31.6626 14.244 31.5666 13.028 31.5666 11.636C31.5666 9.428 31.9506 7.692 32.7186 6.428C33.4866 5.164 34.3826 4.268 35.4066 3.74C36.4306 3.196 37.6946 2.708 39.1986 2.276C40.2066 1.988 40.9346 1.732 41.3826 1.508C41.8466 1.284 42.1346 0.963999 42.2466 0.547999H45.9186C45.8546 1.508 45.5266 2.284 44.9346 2.876C44.3586 3.468 43.6706 3.916 42.8706 4.22C42.0706 4.524 41.0226 4.844 39.7266 5.18C38.6706 5.452 37.8226 5.692 37.1826 5.9C36.5426 6.108 35.9666 6.396 35.4546 6.764C34.9586 7.132 34.6146 7.604 34.4226 8.18C34.7586 7.732 35.2066 7.412 35.7666 7.22C36.3266 7.012 36.8866 6.908 37.4466 6.908C39.1906 6.908 40.4146 7.604 41.1186 8.996C41.8706 7.604 43.2386 6.908 45.2226 6.908ZM53.3524 5.156C53.3524 3.684 53.8484 2.508 54.8404 1.628C55.8324 0.748 57.1684 0.308 58.8484 0.308C59.8884 0.308 60.7924 0.483999 61.5604 0.835999C62.3444 1.172 62.9444 1.652 63.3604 2.276C63.7764 2.884 63.9844 3.58 63.9844 4.364C63.9844 5.66 63.3044 6.684 61.9444 7.436C63.2244 7.692 64.1924 8.3 64.8484 9.26C65.5044 10.22 65.8324 11.444 65.8324 12.932C65.8324 14.004 65.7284 14.988 65.5204 15.884C65.3124 16.764 65.0244 17.628 64.6564 18.476L61.1284 18.5C61.5124 17.508 61.7924 16.612 61.9684 15.812C62.1444 14.996 62.2324 14.052 62.2324 12.98C62.2324 11.972 61.9924 11.196 61.5124 10.652C61.0484 10.108 60.4004 9.836 59.5684 9.836C58.8004 9.836 58.1604 10.084 57.6484 10.58C57.1524 11.076 56.9044 11.724 56.9044 12.524V18.5H53.3524V5.156ZM56.8804 8.084C57.0564 7.876 57.2884 7.676 57.5764 7.484C57.8804 7.292 58.1844 7.14 58.4884 7.028C59.2084 6.756 59.7284 6.436 60.0484 6.068C60.3684 5.7 60.5284 5.26 60.5284 4.748C60.5284 4.268 60.3684 3.892 60.0484 3.62C59.7444 3.348 59.3284 3.212 58.8004 3.212C58.2404 3.212 57.7764 3.364 57.4084 3.668C57.0564 3.972 56.8804 4.444 56.8804 5.084V8.084ZM69.7834 18.5C69.3514 17.124 69.0154 15.748 68.7754 14.372C68.5514 12.98 68.4394 11.436 68.4394 9.74V6.98C68.4394 5.588 68.7114 4.388 69.2554 3.38C69.7994 2.372 70.5434 1.604 71.4874 1.076C72.4474 0.547999 73.5354 0.283998 74.7514 0.283998C75.9514 0.283998 77.0234 0.547999 77.9674 1.076C78.9274 1.604 79.6794 2.372 80.2234 3.38C80.7674 4.372 81.0394 5.556 81.0394 6.932V9.74C81.0394 11.436 80.9194 12.988 80.6794 14.396C80.4554 15.788 80.1274 17.156 79.6954 18.5H76.2394C77.0714 15.7 77.4874 12.828 77.4874 9.884V7.124C77.4874 5.94 77.2394 5.028 76.7434 4.388C76.2634 3.748 75.5994 3.428 74.7514 3.428C73.9034 3.428 73.2314 3.748 72.7354 4.388C72.2554 5.028 72.0154 5.948 72.0154 7.148V9.884C72.0154 12.828 72.4314 15.7 73.2634 18.5H69.7834Z" fill="#327F37"/>
</svg>
